<svg width="100" height="100" xmlns="http://www.w3.org/2000/svg" preserveAspectRatio="xMidYMid meet">

 <g>
  <title>background</title>
  <rect fill="none" id="canvas_background" height="102" width="102" y="-1" x="-1"/>
 </g>
 <g>
  <title>Layer 1</title>
  <path stroke="null" id="svg_2" d="m50.650294,7.729392c-4.280633,1.143962 -4.981771,1.734394 -22.842341,19.484259c-9.410011,9.373109 -17.602256,17.786766 -18.192688,18.746219c-4.686555,7.269695 -3.50569,15.757156 3.542592,25.204069c2.76765,3.764005 10.590875,11.624132 14.207272,14.281076c9.040991,6.716165 16.273784,8.155343 23.580381,4.649653c2.177218,-1.033256 4.133025,-2.878356 18.783121,-17.417746c12.8788,-12.804996 16.310686,-16.052372 16.126176,-15.166724c-0.479726,2.103414 -1.734394,4.243731 -3.874711,6.605459c-2.435532,2.693846 -3.542592,5.092477 -3.173572,6.974479c0.55353,2.989062 5.350791,6.457851 8.376755,6.051929c1.918904,-0.258314 3.431886,-1.66059 4.206829,-3.911613c0.92255,-2.656944 1.10706,-8.450559 0.405922,-12.768094c-1.254668,-7.491107 -1.328472,-8.856481 -0.774942,-12.731192c1.143962,-8.229147 -1.328472,-14.244174 -9.742129,-23.801793c-5.424595,-6.125733 -12.177662,-11.661034 -17.270138,-14.207272c-4.907967,-2.435532 -9.299305,-3.099768 -13.358526,-1.992708zm7.638715,4.243731c2.76765,0.664236 8.192245,3.431886 11.550328,5.904321c3.874711,2.878356 8.561265,7.564911 11.0337,11.107504c2.066512,2.878356 4.428241,7.306597 4.428241,8.229147c0,1.955806 -6.125733,2.730748 -16.569,2.103414c-7.306597,-0.442824 -13.321624,-1.217766 -14.871508,-1.918904c-0.92255,-0.442824 -2.915258,-3.358082 -4.686555,-6.900675c-3.210474,-6.457851 -3.50569,-13.579938 -0.664236,-16.679706c1.882002,-2.066512 5.756713,-2.804552 9.779031,-1.8451zm-15.83096,11.328916c0.55353,5.203183 1.918904,9.114795 4.612751,13.174016c2.546238,3.837809 9.151697,10.627777 12.804996,13.210918c5.166281,3.653298 11.292014,6.051929 16.273784,6.420949l2.804552,0.221412l-13.284722,13.137114c-8.598167,8.487461 -14.022762,13.61684 -15.425038,14.465586c-5.240085,3.210474 -11.365818,2.730748 -18.303394,-1.512982c-7.417303,-4.502045 -15.388136,-13.210918 -18.377199,-20.074691c-1.033256,-2.39863 -1.143962,-2.95216 -1.143962,-6.679263c0,-6.420949 -0.18451,-6.162635 16.01547,-22.510223c7.417303,-7.528009 13.543036,-13.653742 13.579938,-13.653742c0.036902,0 0.258314,1.697492 0.442824,3.800907z"/>
 </g>
</svg>