<svg width="100" height="100" xmlns="http://www.w3.org/2000/svg" preserveAspectRatio="xMidYMid meet">

 <g>
  <title>background</title>
  <rect fill="none" id="canvas_background" height="102" width="102" y="-1" x="-1"/>
 </g>
 <g>
  <title>Layer 1</title>
  <path stroke="null" id="svg_2" d="m81.479224,8.897732c-1.259085,0.419695 -3.217661,1.329034 -4.336847,1.993551c-3.182686,1.888627 -10.737194,9.583033 -14.269625,14.549422c-4.092025,5.665881 -7.029889,9.093389 -10.492372,12.066227c-3.392534,2.90289 -10.177601,7.554508 -13.570134,9.233287c-2.623093,1.329034 -7.204762,2.972839 -8.288974,2.972839c-0.38472,0 -2.937864,-2.028525 -5.700855,-4.476745c-5.630906,-5.001364 -6.645169,-5.595932 -8.428872,-5.001364c-1.503907,0.489644 -5.805779,4.406796 -7.239736,6.57522c-1.259085,1.853652 -1.364008,2.972839 -0.419695,4.51172c0.979288,1.60883 8.603745,10.527346 14.199676,16.612922c7.449584,8.079126 23.188141,22.628548 25.566412,23.607836c2.483195,1.049237 4.022076,0.314771 8.253999,-3.812228c2.308322,-2.273347 3.112737,-3.322584 3.427508,-4.406796c0.699491,-2.588118 0,-3.567406 -8.463846,-12.450948l-1.678779,-1.783703l0.664517,-2.658067c0.769441,-2.937864 2.867915,-7.379635 5.036338,-10.597295c3.987101,-5.910703 8.813592,-10.737194 15.109015,-15.178964c7.449584,-5.211211 10.772168,-7.834304 13.640083,-10.702219c4.756542,-4.791516 6.95994,-8.743643 7.379635,-13.395261c0.38472,-4.022076 -0.769441,-6.540245 -3.497457,-7.79933c-1.888627,-0.874364 -4.092025,-0.804415 -6.889991,0.139898zm4.826491,4.581669c0.874364,0.769441 0.979288,1.084212 0.944313,2.90289c0,2.518169 -0.559593,3.637356 -3.637356,7.309686c-3.847203,4.581669 -7.869279,7.904253 -16.507998,13.710032c-2.867915,1.958576 -5.560957,4.092025 -6.750092,5.386084c-4.791516,5.176237 -11.85638,15.318863 -13.185414,18.886269c-0.38472,1.119186 -0.83939,2.028525 -0.979288,2.028525c-0.139898,0 -1.22411,-0.629542 -2.413245,-1.433957c-2.378271,-1.573856 -5.73583,-5.106288 -6.95994,-7.239736l-0.769441,-1.398983l2.518169,-1.189135c3.392534,-1.60883 7.484558,-4.266898 13.395261,-8.743643c6.225474,-4.721567 7.449584,-5.945677 12.2411,-12.346024c11.611558,-15.598659 18.396625,-21.054693 22.10393,-17.872006zm-65.40245,33.015996c5.28116,4.581669 26.580675,25.391539 31.966759,31.267268c2.238373,2.44822 3.112737,3.67233 3.112737,4.336847c0,0.594568 -0.629542,1.538881 -1.993551,3.007813c-2.44822,2.553144 -3.252635,2.937864 -4.756542,2.203398c-2.658067,-1.259085 -26.720573,-25.181692 -34.170157,-33.925335c-3.112737,-3.67233 -3.147712,-4.127 -0.419695,-6.889991c2.658067,-2.658067 3.182686,-2.658067 6.260448,0z"/>
 </g>
</svg>